<svg xmlns="http://www.w3.org/2000/svg" viewBox="0 0 512 512" width="512" height="512"><defs>
  <linearGradient id="steel" x1="0" y1="0" x2="1" y2="1">
    <stop offset="0" stop-color="#3E4E68"/><stop offset="1" stop-color="#0A101B"/></linearGradient>
  <linearGradient id="glyphsteel" x1="0" y1="0" x2="1" y2="1">
    <stop offset="0" stop-color="#8CA0BE"/><stop offset="1" stop-color="#4A5A74"/></linearGradient>
  <radialGradient id="gloss" cx="0.5" cy="0.02" r="0.85">
    <stop offset="0" stop-color="#ffffff" stop-opacity="0.34"/>
    <stop offset="0.55" stop-color="#ffffff" stop-opacity="0"/></radialGradient>
  <linearGradient id="topg" x1="0" y1="0" x2="0" y2="1">
    <stop offset="0" stop-color="#ffffff" stop-opacity="0.15"/>
    <stop offset="0.5" stop-color="#ffffff" stop-opacity="0"/></linearGradient>
</defs><rect width="512" height="512" rx="112.64" fill="url(#steel)"/><rect width="512" height="512" rx="112.64" fill="url(#topg)"/><rect width="512" height="512" rx="112.64" fill="url(#gloss)"/><g transform="translate(112.64,112.64) scale(2.8672)" fill="#ffffff"><path d="M45 18 h10 a4 4 0 0 1 4 4 v14 l-18 8 v-22 a4 4 0 0 1 4 -4 z"/><path d="M41 48 L59 40 L59 52 L73 52 L50 80 L27 52 L41 52 Z"/></g></svg>